<svg xmlns="http://www.w3.org/2000/svg" xmlns:xlink="http://www.w3.org/1999/xlink" viewBox="0 0 1121.799 839.002">
  <defs>
    <linearGradient id="linear-gradient" x1="0.5" x2="0.5" y2="1" gradientUnits="objectBoundingBox">
      <stop offset="0" stop-color="#ebcaca"/>
      <stop offset="1" stop-color="#f8f8f8"/>
    </linearGradient>
    <linearGradient id="linear-gradient-2" x1="0.6" y1="-0.502" x2="0.378" y2="0.905" gradientUnits="objectBoundingBox">
      <stop offset="0" stop-color="#d8a2a2"/>
      <stop offset="1" stop-color="#ffe2e2"/>
    </linearGradient>
    <radialGradient id="radial-gradient" cx="0.5" cy="0.5" r="0.5" gradientUnits="objectBoundingBox">
      <stop offset="0" stop-color="#f8f8f8"/>
      <stop offset="1" stop-color="#f0f0f0"/>
    </radialGradient>
  </defs>
  <g id="Group_64" data-name="Group 64" transform="translate(1936 -4908)">
    <circle id="Ellipse_89" data-name="Ellipse 89" cx="101.66" cy="101.66" r="101.66" transform="translate(-1150.838 4908)" fill="#ff6584"/>
    <rect id="Rectangle_18" data-name="Rectangle 18" width="9" height="255" transform="matrix(0.996, -0.087, 0.087, 0.996, -1494.095, 5383.877)" fill="url(#linear-gradient)"/>
    <g id="undraw_cancel_u1it" transform="translate(-369 5197)">
      <path id="Path_340" data-name="Path 340" d="M832.208,587.468c0,67.693-40.242,91.329-89.884,91.329s-89.884-23.636-89.884-91.329,89.884-153.809,89.884-153.809S832.208,519.775,832.208,587.468Z" transform="translate(-1626.976 -273.999)"/>
      <path id="Path_341" data-name="Path 341" d="M679.994,535.79,718.3,465.7l-38.167,61.2.414-25.473,26.4-50.708-26.294,43.966.744-45.815L709.68,408.5l-28.157,33.165.465-84.009-2.8,106.449L650.56,420.284l28.285,52.808-2.679,51.167-.079-1.358-33.139-46.3,33.038,51.1-.335,6.4-.06.1.028.525-6.8,68.28H677.9l1.09-5.516,32.957-50.977-32.875,45.936Z" transform="translate(-1567 -198)" fill="#3f3d56"/>
      <path id="Path_342" data-name="Path 342" d="M1140.024,369.813c0,129.31-76.873,174.461-171.7,174.461s-171.7-45.15-171.7-174.461S968.324,76,968.324,76,1140.024,240.5,1140.024,369.813Z" transform="translate(-1626.976 -273.999)" fill="#f2f2f2"/>
      <path id="Path_343" data-name="Path 343" d="M902.093,448.494l1.758-108.221,73.184-133.885L904.127,323.3l.791-48.661,50.437-96.864-50.228,83.987h0l1.422-87.519,54.009-77.116-53.786,63.354L907.661,0l-5.583,212.444.459-8.764-54.912-84.052L901.656,220.5l-5.116,97.743-.153-2.594-63.3-88.452L896.2,324.817l-.64,12.224-.115.184.053,1L882.513,586.21h17.343l2.081-128.087,62.957-97.378Z" transform="translate(-1567 -198)" fill="#3f3d56"/>
      <path id="Path_344" data-name="Path 344" d="M1132.976,640.557c0,38.6-250.369,183.444-543.052,183.444S59.976,749.036,59.976,710.441s231.442,7.28,524.125,7.28S1132.976,601.962,1132.976,640.557Z" transform="translate(-1626.976 -273.999)" fill="#3f3d56"/>
      <path id="Path_345" data-name="Path 345" d="M1132.976,640.557c0,38.6-250.369,183.444-543.052,183.444S59.976,749.036,59.976,710.441s231.442,7.28,524.125,7.28S1132.976,601.962,1132.976,640.557Z" transform="translate(-1626.976 -273.999)" opacity="0.1"/>
      <path id="Path_346" data-name="Path 346" d="M1132.976,640.557c0,38.6-250.369,139.767-543.052,139.767S59.976,749.036,59.976,710.441s231.442-36.4,524.125-36.4S1132.976,601.962,1132.976,640.557Z" transform="translate(-1626.976 -273.999)" fill="#3f3d56"/>
      <ellipse id="Ellipse_60" data-name="Ellipse 60" cx="225.044" cy="17.407" rx="225.044" ry="17.407" transform="translate(-1256.166 426.367)" opacity="0.1"/>
      <path id="Path_347" data-name="Path 347" d="M417.574,368.965s65.883,1.22,53.683,12.811-57.953,0-57.953,0Z" transform="translate(-1626.976 -273.999)" fill="#a0616a"/>
      <path id="Path_348" data-name="Path 348" d="M280.3,228.182s26.6-4.75,35.849,16.724S344.4,327.621,344.4,327.621s50.833,33.648,60.079,32.542,25.052,1.15,22.152,11.237-1.612,21.525-8.287,22.927-17.291-11.98-25.415-5.534-80.53-17.1-85.179-21.974-43.279-110.5-43.279-110.5S266.015,227.838,280.3,228.182Z" transform="translate(-1626.976 -273.999)"/>
      <path id="Path_349" data-name="Path 349" d="M277.379,605.607l3.05,25.621-25.621,6.711-14.641-6.711V608.657Z" transform="translate(-1567 -198)" fill="#a0616a"/>
      <path id="Path_350" data-name="Path 350" d="M208.445,622.078l3.05,25.621-25.621,6.711L171.233,647.7V625.128Z" transform="translate(-1567 -198)" fill="#a0616a"/>
      <path id="Path_351" data-name="Path 351" d="M339.795,401.6l11.591,42.092,17.081,85.4s4.88,20.741-4.88,45.752-27.451,106.756-23.791,111.636-41.482,8.54-40.872,3.66,6.71-71.984,6.71-71.984,8.54-59.173,12.811-66.493-19.521-25.621-19.521-25.621-6.1,70.154-15.251,76.254-7.93,100.655-12.2,101.875-35.382,6.1-39.042,0,0-107.976,0-107.976,20.741-77.474,16.471-88.455-1.83-57.953-1.83-57.953-15.861-35.992-7.32-54.9Z" transform="translate(-1626.976 -273.999)" fill="#2f2e41"/>
      <path id="Path_352" data-name="Path 352" d="M337.965,167.349s-25.621,31.722-24.4,45.752S273.3,187.48,273.3,187.48s29.892-40.262,29.892-48.8S337.965,167.349,337.965,167.349Z" transform="translate(-1626.976 -273.999)" fill="#a0616a"/>
      <circle id="Ellipse_61" data-name="Ellipse 61" cx="40.262" cy="40.262" r="40.262" transform="translate(-1329.578 -175.278)" fill="#a0616a"/>
      <path id="Path_353" data-name="Path 353" d="M236.193,378.78c-1.824,6.8-4.087,14.5-3.764,20.991.207,4.2,11.365,6.96,26.793,8.766,14.305,1.678,32.283,2.532,48.626,2.971,17.16.464,32.5.464,39.878.464,21.961,0,4.27-14.031-4.27-20.741s-6.71-101.875-6.1-114.076-5.49-47.582-5.49-54.293-14.354-24.224-14.354-24.224-3.337,9.584-16.758-3.227-31.112-16.471-31.112-16.471c-13.421,4.88-35.992,58.563-37.212,67.714-.494,3.715-.085,22.742.744,44.465,1.2,31.752,3.3,69.287,4.746,73.271C239.06,367.531,237.8,372.8,236.193,378.78Z" transform="translate(-1626.976 -273.999)"/>
      <path id="Path_354" data-name="Path 354" d="M241.387,338.413l4.27,15.251-16.471,17.081-5.49-23.792Z" transform="translate(-1567 -198)" fill="#a0616a"/>
      <path id="Path_355" data-name="Path 355" d="M306.853,700.517s12.811,14.641,22.571,4.88,9.15-15.861,10.981-15.861,29.282,24.4,29.282,24.4,46.972,10.981,21.351,18.911-98.215,2.44-98.215,0-1.83-34.772,4.88-34.772Z" transform="translate(-1626.976 -273.999)" fill="#2f2e41"/>
      <path id="Path_356" data-name="Path 356" d="M237.919,716.988s12.811,14.641,22.571,4.88,9.15-15.861,10.981-15.861,29.282,24.4,29.282,24.4,46.972,10.981,21.351,18.911-98.215,2.44-98.215,0-1.83-34.772,4.88-34.772Z" transform="translate(-1626.976 -273.999)" fill="#2f2e41"/>
      <path id="Path_357" data-name="Path 357" d="M292.456,171.122c-1.3.84-2.994,1.692-4.3.854a194.657,194.657,0,0,1-10.8-37.4c-.822-4.5-1.393-9.492,1.1-13.319.985-1.509,2.4-2.744,3.124-4.4,1.093-2.5.373-5.4.736-8.1.76-5.667,6.118-9.62,11.505-11.537s11.238-2.512,16.373-5.027c4.876-2.389,8.781-6.35,13.3-9.356s10.313-5.062,15.348-3.03c4.454,1.8,7.229,6.337,11.439,8.649,2.857,1.569,6.173,2.005,9.362,2.679a59.922,59.922,0,0,1,24.34,11.308,17.673,17.673,0,0,1,4.43,4.566c5.4,8.9-4.271,20.989,0,30.481l-9.227-7.281a32.13,32.13,0,0,0-8.24-5.237c-3.056-1.158-6.676-1.3-9.452.427-3.9,2.42-4.953,7.476-6.314,11.856s-4.371,9.237-8.956,9.125c-6.235-.153-8.416-8.855-14.012-11.61-3.648-1.8-8.24-.613-11.35,2.006s-4.976,6.42-6.344,10.248c-.855,2.393-1.658,5.09-3.177,7.163-1.675,2.287-3.818,2.471-5.608,4.179C301.082,162.812,298.218,167.4,292.456,171.122Z" transform="translate(-1626.976 -273.999)" fill="#2f2e41"/>
      <path id="Path_358" data-name="Path 358" d="M236.193,378.78c7.583,11,16.129,22.345,23.029,29.757,14.305,1.678,32.283,2.532,48.626,2.971a38.528,38.528,0,0,0-10.755-9.907c-7.93-4.88-26.841-62.833-26.841-62.833s23.181-59.783,29.282-82.354-17.691-35.382-17.691-35.382c-10.981-9.15-29.892,12.2-29.892,12.2s-9.651,29.111-18.777,57.886c1.2,31.752,3.3,69.287,4.746,73.271C239.06,367.531,237.8,372.8,236.193,378.78Z" transform="translate(-1626.976 -273.999)" opacity="0.1"/>
      <path id="Path_359" data-name="Path 359" d="M280.011,216.152S303.8,228.962,297.7,251.533s-29.282,82.354-29.282,82.354,18.911,57.953,26.841,62.833,18.911,16.471,10.371,22.571-14.641,15.861-20.741,12.811-6.1-20.131-16.471-20.131-52.463-63.443-53.073-70.154S250.12,228.352,250.12,228.352,269.031,207,280.011,216.152Z" transform="translate(-1626.976 -273.999)"/>
      <path id="Path_364" data-name="Path 364" d="M214.976,636.191c0,56.222-33.423,75.852-74.652,75.852s-74.652-19.63-74.652-75.852,74.652-127.744,74.652-127.744S214.976,579.97,214.976,636.191Z" transform="translate(-1626.976 -273.999)"/>
      <path id="Path_365" data-name="Path 365" d="M78.393,580.392l31.819-58.211-31.7,50.83.344-21.157,21.929-42.115L78.948,546.255l.618-38.051,23.482-33.529L79.663,502.221l.386-69.773-2.323,88.41-23.779-36.4,23.491,43.858-2.224,42.5-.066-1.128L47.625,531.23l27.439,42.442-.278,5.315-.05.08.023.436-5.644,56.709h7.541l.9-4.581,27.372-42.338-27.3,38.151Z" transform="translate(-1567 -198)" fill="#3f3d56"/>
    </g>
    <g id="undraw_music_r1se" transform="translate(-1286.997 4887.999)">
      <path id="Path_267" data-name="Path 267" d="M58.46,824.39c39.32,13.22,87.29,5.18,131.9,6.11,6.11.13,12.57.51,17.47,2.79s7.31,6,10.67,9.16C231,854.24,256.62,858,279,856s42.91-8.62,64-13.67c36.53-8.72,78.28-12.68,114.3-3.18,3.3.87,6.78,1.88,10.33,1.53,7.9-.78,10.25-7.1,15.77-10.72,10-6.52,31.63-4.75,36-13.34,2.57-5-3.34-10.2-9.77-13.64-24.62-13.16-59.84-15.33-92.06-13.3s-63.91,7.63-96.29,7.65C281,797.38,242,788.77,202,785.25c-27.67-2.44-57.88-2.14-83.83,5C90.07,798.08,83.88,815.53,58.46,824.39Z" transform="translate(-47.22 -43.47)" opacity="0.1"/>
      <path id="Path_299" data-name="Path 299" d="M219.47,610.3v11c4.39,1.63,9-2.16,13.68-1.92,2.73.13,5.21,1.65,7.91,2.11a2.58,2.58,0,0,0,2-.29,2.91,2.91,0,0,0,.82-1.89c1-5.85,2.1-20-7-21C230.16,597.54,227.59,609.52,219.47,610.3Z" transform="translate(-47.22 -43.47)" fill="#ffb9b9"/>
      <path id="Path_300" data-name="Path 300" d="M219.47,610.3v11c4.39,1.63,9-2.16,13.68-1.92,2.73.13,5.21,1.65,7.91,2.11a2.58,2.58,0,0,0,2-.29,2.91,2.91,0,0,0,.82-1.89c1-5.85,2.1-20-7-21C230.16,597.54,227.59,609.52,219.47,610.3Z" transform="translate(-47.22 -43.47)" opacity="0.1"/>
      <path id="Path_301" data-name="Path 301" d="M232.05,610.78c-2.55,6-6.36,10.53-9.67,11.87a.84.84,0,0,1-.14.06,4.19,4.19,0,0,1-3.16.09,3,3,0,0,1-.87-.54c-2.85-2.38-2.73-9.64.44-17.14,3.46-8.2,9.27-13.58,13-12S235.52,602.58,232.05,610.78Z" transform="translate(-47.22 -43.47)" fill="#4c4c78"/>
      <path id="Path_302" data-name="Path 302" d="M226.35,813.37l-.19,2.62s-1.23,12.3,12.44,12.13,16.08-9.58,16.08-9.58l-1.41-6.25Z" transform="translate(-47.22 -43.47)" fill="#4c4c78"/>
      <path id="Path_303" data-name="Path 303" d="M273.22,554.7s-6.62,64.87-5.37,76.37c.82,7.58-2,18.3-4.09,24.74a26.72,26.72,0,0,0-1.23,10.61c2,21.9-4.85,54.57-7,58.15-2.29,3.88-2.08,30.5-2.08,30.5l.73,6.25.52,4.41.49,4.22s1.13,15.5-.74,19.12c-1.36,2.63-1.08,14.06-.83,20.15.1,2.31.2,3.85.2,3.85a4.48,4.48,0,0,1-1.14,2.92c-1.69,2.08-5.88,4.44-16.23,4.08-8.27-.29-11-3.74-11.64-7.38a15.34,15.34,0,0,1,1.07-7.55c.32-.82.57-1.31.57-1.31l9-28.13a56.658,56.658,0,0,1,.19-5.84,21.81,21.81,0,0,1,1.39-6.58v-.08c1.88-4-2.38-27.37-2.38-27.37-6.24-24.13-4.62-74.38-3.12-76.76S235,647,235,647s.24-5.75.62-18.88-3.88-37.24-3.88-37.24c-14.12-46-.62-60.88-.62-60.88l42.12,9.88Z" transform="translate(-47.22 -43.47)" fill="#ffb9b9"/>
      <path id="Path_304" data-name="Path 304" d="M254.73,765.73c-4.58,1.52-14,4.41-19.06,4.13a21.81,21.81,0,0,1,1.39-6.58c4.13.83,11.13,1.44,17.15-2Z" transform="translate(-47.22 -43.47)" fill="#4c4c78"/>
      <path id="Path_305" data-name="Path 305" d="M252.71,816c-6.22-3.26-17.94-7.9-27.87-3.3a15.34,15.34,0,0,1,1.07-7.55c5.77-.77,18-1.49,27.74,4.08.1,2.31.2,3.85.2,3.85a4.48,4.48,0,0,1-1.14,2.92Z" transform="translate(-47.22 -43.47)" fill="#4c4c78"/>
      <path id="Path_306" data-name="Path 306" d="M233.93,488.12v25.66s-19.16,44.59-24.79,52.75a26,26,0,0,0-3.43,7.05,50.911,50.911,0,0,1-8.28,16c-6.14,8-9,18.39-9,18.39-29.41-9.92,3.25-37.33,3.25-37.33s12-26.09,13-34.67c.78-6.69,9.11-31.83,12.74-42.58,1-3,1.68-4.92,1.68-4.92Z" transform="translate(-47.22 -43.47)" fill="#ffb9b9"/>
      <path id="Path_307" data-name="Path 307" d="M275.22,588s-10.29-7-14.29,12,11.34,24,11.34,24Z" transform="translate(-47.22 -43.47)" fill="none"/>
      <path id="Path_308" data-name="Path 308" d="M275.22,588s-10.29-7-14.29,12,11.34,24,11.34,24Z" transform="translate(-47.22 -43.47)" opacity="0.05"/>
      <path id="Path_309" data-name="Path 309" d="M279.43,540.79s-9.54,20.9-8.12,41.33a11.83,11.83,0,0,1-.9,5.52A71.9,71.9,0,0,0,265,619.29v.6a18.26,18.26,0,0,0,29.18,13.35c7-5.29,14.61-14.1,18.83-28.64a108.448,108.448,0,0,1,4.16-11.92c5-11.69,14.63-36.61,11.74-47.39C325.1,531,279.43,540.79,279.43,540.79Z" transform="translate(-47.22 -43.47)" fill="#ffb9b9"/>
      <path id="Path_310" data-name="Path 310" d="M328.38,545.29c-1.67-6.25-11.29-7.9-21.6-7.79,9.53.12,18,2,19.6,7.79,2.88,10.78-6.77,35.7-11.74,47.39a105.125,105.125,0,0,0-4.16,11.92c-4.23,14.54-11.83,23.36-18.83,28.64a18,18,0,0,1-9.93,3.66,17.93,17.93,0,0,0,11.93-3.66c7-5.28,14.6-14.1,18.83-28.64a105.115,105.115,0,0,1,4.16-11.92C321.61,581,331.26,556.07,328.38,545.29Z" transform="translate(-47.22 -43.47)" opacity="0.1"/>
      <path id="Path_311" data-name="Path 311" d="M227.35,508.08s-7.38,29-9,30.75c0,0,48,9.62,54.87,16.87l1-8.25,3.38,2.25s27.75-19.75,52,5c0,0,11.87-36,8.5-42.75s-43.88-.87-43.88-.87Z" transform="translate(-47.22 -43.47)" opacity="0.1"/>
      <path id="Path_312" data-name="Path 312" d="M227.35,507.08s-7.38,29-9,30.75c0,0,48,9.62,54.87,16.87l1-8.25,3.38,2.25s27.75-19.75,52,5c0,0,11.87-36,8.5-42.75s-43.88-.87-43.88-.87Z" transform="translate(-47.22 -43.47)" fill="#4c4c78"/>
      <path id="Path_313" data-name="Path 313" d="M226,334.31a21.8,21.8,0,0,0,.09,4.52c.33,3,.79,6,1.3,9,.15.88.31,1.75.47,2.62,1.58,8.58,3.62,17.09,5,25.71a125,125,0,0,1,1.46,13.32A73.39,73.39,0,0,1,232.19,413a47.19,47.19,0,0,1-5.2,12.14,15.37,15.37,0,0,1-3.6,4.32,9.893,9.893,0,0,1-1,.63,16.17,16.17,0,0,1-6.7,1.82c-1.59.15-3.18.2-4.78.2-1.26,0-2.53,0-3.79-.1-4.49-.19-9-.64-13.47-.61-7.35.06-15.16,1.64-20.44,6.92-5.92,5.92-7.27,14.78-9.77,23a41.87,41.87,0,0,1-3.72,9,10,10,0,0,1-4.56,4.53,11.5,11.5,0,0,1-5.26.37l-20.86-1.75c-2.78-.23-5.76-.42-8.15,1.05-2.69,1.65-3.91,4.93-5.14,7.9a78.359,78.359,0,0,1-9.66,17c-1.69,2.27-3.61,4.52-6.19,5.55-2.86,1.13-6.06.59-9.08,0-9.48-1.76-20.12-4.32-25-12.89-5.65-10-.53-22.73,6.09-32S87,442,88.45,430.53c.39-3.08.11-6.55-2-8.76-1.66-1.74-4.17-2.4-5.75-4.21-2.78-3.21-1.45-8.26.28-12.18a99.29,99.29,0,0,1,18.51-28c12.07-12.82,28.2-23.4,32.82-40.64,2.83-10.59.67-21.83.95-32.82.1-4.14.63-8.48,2.93-11.88,2.63-3.88,7.19-5.92,11.7-6.7,11.62-2,24.85,2.69,34.61-4.15,6.09-4.28,9.36-12.34,16.11-15.4,5.81-2.64,12.56-.8,18.44,1.67,10,4.17,20.18,11.49,21.79,22.47a29.6,29.6,0,0,1,.26,3.12,49.709,49.709,0,0,0,.49,7.82c1.55,7.94,8.67,15.61,5.36,23C234.77,325.13,226.82,325.16,226,334.31Z" transform="translate(-47.22 -43.47)" fill="#b96b6b"/>
      <path id="Path_314" data-name="Path 314" d="M232.19,413c-3.61,5.44-6.67,11.27-9.76,17.09a16.17,16.17,0,0,1-6.7,1.82c-1.59.15-3.18.2-4.78.2-1.26,0-2.53,0-3.79-.1-4.49-.19-9-.64-13.47-.61-7.35.06-15.16,1.64-20.44,6.92-5.92,5.92-7.27,14.78-9.77,23H162.4c-5.2,0-9.77-3.29-13.76-6.61a9.839,9.839,0,0,1-2.61-2.85,7.53,7.53,0,0,1-.62-4.28c.58-5.79,4.53-10.59,8.08-15.19a169.612,169.612,0,0,0,10.67-15.54c1.5-2.45,3-5.16,2.73-8-.2-2.3-1.49-4.35-2-6.59-1.37-5.76,2.51-11.5,7.07-15.27s10-6.52,13.83-11.05,5.66-10.79,6.09-16.84c.31-4.25.18-9,3.07-12.13,4.26-4.63,10.85-1.76,16.14-1.32,5.52.47,10.93,1.2,16.34,2.13.15.88.31,1.75.47,2.62,1.58,8.58,3.62,17.09,5,25.71a124.993,124.993,0,0,1,1.46,13.32A73.389,73.389,0,0,1,232.19,413Z" transform="translate(-47.22 -43.47)" opacity="0.1"/>
      <path id="Path_315" data-name="Path 315" d="M283.1,263.78l-20,13.67-1.53-4.33-3.3-9.34s-39.67-29-49.34-38.83-18.16-6.5-18.16-6.5c-9.67,7.17-23.84,10.67-27.5-2-2.73-9.4,17.7-14.31,28.41-16.21a16.67,16.67,0,0,1,11.31,2c7.32,4.26,20.71,11.93,26.94,14.88,8.84,4.16,43.67,31.5,43.67,33,0,1,4.55,7.18,7.35,10.86C282.2,262.63,283.1,263.78,283.1,263.78Z" transform="translate(-47.22 -43.47)" fill="#ffb9b9"/>
      <path id="Path_316" data-name="Path 316" d="M322.1,385.12l9,71.33,14-10.66s-5.67-12-2-14.16,9,11.82,9,11.82,35.67,2,25.67-18.33l-11.34-14.67L344.1,394.6Z" transform="translate(-47.22 -43.47)" fill="#757a9b"/>
      <path id="Path_317" data-name="Path 317" d="M322.1,385.12l9,71.33,14-10.66s-5.67-12-2-14.16,9,11.82,9,11.82,35.67,2,25.67-18.33l-11.34-14.67L344.1,394.6Z" transform="translate(-47.22 -43.47)" opacity="0.1"/>
      <path id="Path_318" data-name="Path 318" d="M288.43,381.78l-4.33,36-28.88,2.34s-30.81-8.79-19.45-30.34c5.16-9.8,1.92-15.67-2.76-19.11a28.88,28.88,0,0,0-11.4-4.55s-.84-55,8.82-36.34c4.34,8.39,13.19,11.73,21.62,12.87a69.1,69.1,0,0,0,20.05-.53Z" transform="translate(-47.22 -43.47)" fill="#ffb9b9"/>
      <path id="Path_319" data-name="Path 319" d="M252.06,343.12a29.448,29.448,0,0,1-19.054,27.548A28.88,28.88,0,0,0,221.6,366.12s-.84-55,8.82-36.34c4.34,8.39,13.19,11.73,21.62,12.87A4.023,4.023,0,0,1,252.06,343.12Z" transform="translate(-47.22 -43.47)" opacity="0.1"/>
      <circle id="Ellipse_59" data-name="Ellipse 59" cx="29.45" cy="29.45" r="29.45" transform="translate(144.94 269.2)" fill="#ffb9b9"/>
      <path id="Path_320" data-name="Path 320" d="M283.1,263.78l-20,13.67-1.53-4.33c5.95-1.95,15.12-8.8,19.38-12.14C282.2,262.63,283.1,263.78,283.1,263.78Z" transform="translate(-47.22 -43.47)" opacity="0.1"/>
      <path id="Path_321" data-name="Path 321" d="M289.27,277.45l-.84,3.83-23.33,7.5a85.941,85.941,0,0,1-6.41-8.22c-2.19-3.33-3.42-6.33-.42-5.94,6.5.83,25-14.5,25-14.5,3.09-3.47,4.9,7.79,5.63,13.8C289.15,276,289.27,277.45,289.27,277.45Z" transform="translate(-47.22 -43.47)" fill="#cbcdda"/>
      <path id="Path_322" data-name="Path 322" d="M233.93,488.12v9.15c-2,0-10.84-.45-16.51-3.9,1-3,1.68-4.92,1.68-4.92Z" transform="translate(-47.22 -43.47)" opacity="0.1"/>
      <path id="Path_323" data-name="Path 323" d="M238.27,479.12,237,484.78l-2.63,11.5s-12.5,0-18.58-5.08c-3.73-3.11-2.89-8-1.68-11.33a20.939,20.939,0,0,1,1.68-3.59Z" transform="translate(-47.22 -43.47)" fill="#cbcdda"/>
      <path id="Path_324" data-name="Path 324" d="M238.27,479.12,237,484.78c-5.91,3.12-19.43-3.2-22.89-4.91a20.94,20.94,0,0,1,1.68-3.59Z" transform="translate(-47.22 -43.47)" opacity="0.1"/>
      <path id="Path_325" data-name="Path 325" d="M214.93,408.62l-3.16,12.17s6.33,37.83,3.83,45.33-2.33,12.33-2.33,12.33,18.33,9.67,24.5,4.84S243.93,458,243.93,458l13-13.33-16.5-23.83Z" transform="translate(-47.22 -43.47)" fill="#757a9b"/>
      <path id="Path_326" data-name="Path 326" d="M277.6,361s15.75,52.75-35.5,40.5l14.83,58.25-29.58,55s94.75,16,110.75-4.75c0,0-7.75-62.5-4.75-83.5s-9.5-53.76-16.25-55.88S277.6,361,277.6,361Z" transform="translate(-47.22 -43.47)" opacity="0.1"/>
      <path id="Path_327" data-name="Path 327" d="M277.6,363s15.75,52.75-35.5,40.5l14.83,58.25-29.58,55s94.75,16,110.75-4.75c0,0-7.75-62.5-4.75-83.5s-9.5-53.76-16.25-55.88S277.6,363,277.6,363Z" transform="translate(-47.22 -43.47)" opacity="0.1"/>
      <path id="Path_328" data-name="Path 328" d="M277.6,362s15.75,52.75-35.5,40.5l14.83,58.25-29.58,55s94.75,16,110.75-4.75c0,0-7.75-62.5-4.75-83.5s-9.5-53.76-16.25-55.88S277.6,362,277.6,362Z" transform="translate(-47.22 -43.47)" fill="#cbcdda"/>
      <path id="Path_329" data-name="Path 329" d="M277.93,283.5c-3,1.4-9.74,3.24-19.5-1.05,0,0,15.34,30,16.34,35.67s1,12.67-.34,13.67-5.33,11.33-5.33,11.33l-15.67.69s10,4,10,11.64,22,22,33.67,27.67,59.33,22.37,59.33,22.37l21.34,20.63s-8.34-21.67-36.67-41-28-30.83-28-30.83-5.33-40.5-12.33-51.84-11-27.66-11-27.66-5.6,7.72-8.93,7.93A8.22,8.22,0,0,0,277.93,283.5Z" transform="translate(-47.22 -43.47)" opacity="0.1"/>
      <path id="Path_330" data-name="Path 330" d="M289.27,277.45l-.84,3.83-23.33,7.5a85.941,85.941,0,0,1-6.41-8.22c9.63,4.15,16.24,2.33,19.24.94a8,8,0,0,1,2.91-.78c2.53-.16,6.36-4.64,8.06-6.8C289.15,276,289.27,277.45,289.27,277.45Z" transform="translate(-47.22 -43.47)" opacity="0.1"/>
      <path id="Path_331" data-name="Path 331" d="M277.93,282.5c-3,1.4-9.74,3.24-19.5-1.05,0,0,15.34,30,16.34,35.67s1,12.67-.34,13.67-5.33,11.33-5.33,11.33l-15.67.69s10,4,10,11.64,22,22,33.67,27.67,59.33,22.37,59.33,22.37l21.34,20.63s-8.34-21.67-36.67-41-28-30.83-28-30.83-5.33-40.5-12.33-51.84-11-27.66-11-27.66-5.6,7.72-8.93,7.93A8.22,8.22,0,0,0,277.93,282.5Z" transform="translate(-47.22 -43.47)" fill="#757a9b"/>
      <path id="Path_332" data-name="Path 332" d="M202.56,364.33c1-3.15.4-6.58.82-9.86,1.12-8.89,9.49-16.05,9.1-25a4,4,0,0,1,.35-2.46,3.21,3.21,0,0,1,2.17-1.07c4.36-.79,9.37-.37,12.61-3.39s3.16-8.49,2.67-13.09c-.27-2.47-.66-5.19-2.55-6.82a9.83,9.83,0,0,0-4.37-1.79q-8.18-1.86-16.45-3.25c-5.56-.94-11.41-1.69-16.7.26s-9.4,6.53-13.17,10.9c-3.55,4.11-7.34,9.05-6.34,14.4.55,2.9,2.44,5.33,3.7,8a19.38,19.38,0,0,1-1,18.1c-2.62,4.24-7,7.59-8.06,12.45a11.892,11.892,0,0,0,5.19,12.05C178.48,379,199.43,374.26,202.56,364.33Z" transform="translate(-47.22 -43.47)" opacity="0.1"/>
      <path id="Path_333" data-name="Path 333" d="M201.56,364.33c1-3.15.4-6.58.82-9.86,1.12-8.89,9.49-16.05,9.1-25a4,4,0,0,1,.35-2.46,3.21,3.21,0,0,1,2.17-1.07c4.36-.79,9.37-.37,12.61-3.39s3.16-8.49,2.67-13.09c-.27-2.47-.66-5.19-2.55-6.82a9.83,9.83,0,0,0-4.37-1.79q-8.18-1.86-16.45-3.25c-5.56-.94-11.41-1.69-16.7.26s-9.4,6.53-13.17,10.9c-3.55,4.11-7.34,9.05-6.34,14.4.55,2.9,2.44,5.33,3.7,8a19.38,19.38,0,0,1-1,18.1c-2.62,4.24-7,7.59-8.06,12.45a11.892,11.892,0,0,0,5.19,12.05C177.48,379,198.43,374.26,201.56,364.33Z" transform="translate(-47.22 -43.47)" fill="#b96b6b"/>
      <path id="Path_334" data-name="Path 334" d="M235.83,372.23s-24.73,19.56-25.56,26.06,2.66,21.83,2.66,21.83l24.67,15.5s28.5,11.17,7.17,29.83-28.84,58.67-28.84,58.67S226.27,536.45,245.6,501c0,0,18.67-20.33,19.5-30.33S268.84,430,256.22,411c-8.33-12.54-12.86-26.62-16.12-33.91a9.14,9.14,0,0,0-4.27-4.86Z" transform="translate(-47.22 -43.47)" opacity="0.1"/>
      <path id="Path_335" data-name="Path 335" d="M234.83,372.23s-24.73,19.56-25.56,26.06,2.66,21.83,2.66,21.83l24.67,15.5s28.5,11.17,7.17,29.83-28.84,58.67-28.84,58.67S225.27,536.45,244.6,501c0,0,18.67-20.33,19.5-30.33S267.84,430,255.22,411c-8.33-12.54-12.86-26.62-16.12-33.91a9.14,9.14,0,0,0-4.27-4.86Z" transform="translate(-47.22 -43.47)" fill="#757a9b"/>
      <path id="Path_336" data-name="Path 336" d="M243.77,465.45s-21.7,6.8-19.06,28" transform="translate(-47.22 -43.47)" opacity="0.1"/>
      <path id="Path_337" data-name="Path 337" d="M201.74,392.65l-5.03,21.84,9.5-9.74Z" opacity="0.1"/>
      <path id="Path_338" data-name="Path 338" d="M227,502.99l-6.48,4.91,5.48,3.34Z" opacity="0.1"/>
      <path id="Path_339" data-name="Path 339" d="M310.6,436.12s22.3.72,22.75-7.67" transform="translate(-47.22 -43.47)" opacity="0.1"/>
    </g>
    <g id="Group_63" data-name="Group 63" transform="translate(-10 8)">
      <g id="Group_61" data-name="Group 61" transform="translate(-102 -669)">
        <path id="Subtraction_8" data-name="Subtraction 8" d="M202,764a198.1,198.1,0,0,1-38.924-3.733,156.99,156.99,0,0,1-16.987-4.379,120.269,120.269,0,0,1-14.8-5.8,83.79,83.79,0,0,1-12.211-7.03,53.561,53.561,0,0,1-9.22-8.068,33.4,33.4,0,0,1-5.827-8.916,23.563,23.563,0,0,1,0-19.146,33.412,33.412,0,0,1,5.827-8.915,53.606,53.606,0,0,1,9.22-8.069,83.951,83.951,0,0,1,12.211-7.03,120.39,120.39,0,0,1,14.8-5.8,156.98,156.98,0,0,1,16.987-4.379,204.794,204.794,0,0,1,77.849,0,157.012,157.012,0,0,1,16.987,4.379,120.386,120.386,0,0,1,14.8,5.8,83.958,83.958,0,0,1,12.211,7.03,53.568,53.568,0,0,1,9.22,8.069,33.417,33.417,0,0,1,5.828,8.915,23.573,23.573,0,0,1,0,19.146,33.409,33.409,0,0,1-5.828,8.916,53.524,53.524,0,0,1-9.22,8.068,83.793,83.793,0,0,1-12.211,7.03,120.264,120.264,0,0,1-14.8,5.8,156.99,156.99,0,0,1-16.987,4.379A198.1,198.1,0,0,1,202,764Zm1-15c-4.411,0-8,1.795-8,4s3.589,4,8,4,8-1.794,8-4S207.412,749,203,749Zm0-10c-4.411,0-8,1.795-8,4s3.589,4,8,4,8-1.794,8-4S207.412,739,203,739Zm0-10c-4.411,0-8,1.794-8,4s3.589,4,8,4,8-1.795,8-4S207.412,729,203,729Zm0-10c-4.411,0-8,1.794-8,4s3.589,4,8,4,8-1.795,8-4S207.412,719,203,719Zm84-10c-4.411,0-8,1.794-8,4s3.589,4,8,4,8-1.795,8-4S291.411,709,287,709Zm-21.5,0c-4.687,0-8.5,1.794-8.5,4s3.813,4,8.5,4,8.5-1.795,8.5-4S270.187,709,265.5,709Zm-22,0c-4.687,0-8.5,1.794-8.5,4s3.813,4,8.5,4,8.5-1.795,8.5-4S248.187,709,243.5,709ZM222,709c-4.411,0-8,1.794-8,4s3.589,4,8,4,8-1.795,8-4S226.412,709,222,709Zm-38,0c-4.411,0-8,1.794-8,4s3.589,4,8,4,8-1.795,8-4S188.412,709,184,709Zm-21.5,0c-4.687,0-8.5,1.794-8.5,4s3.813,4,8.5,4,8.5-1.795,8.5-4S167.187,709,162.5,709Zm-22,0c-4.687,0-8.5,1.794-8.5,4s3.813,4,8.5,4,8.5-1.795,8.5-4S145.187,709,140.5,709ZM119,709c-4.411,0-8,1.794-8,4s3.588,4,8,4,8-1.795,8-4S123.411,709,119,709Zm84-8c-4.411,0-8,1.794-8,4s3.589,4,8,4,8-1.795,8-4S207.411,701,203,701Zm0-10c-4.411,0-8,1.794-8,4s3.589,4,8,4,8-1.795,8-4S207.411,691,203,691Zm0-10c-4.411,0-8,1.794-8,4s3.589,4,8,4,8-1.795,8-4S207.411,681,203,681Zm0-10c-4.411,0-8,1.794-8,4s3.589,4,8,4,8-1.794,8-4S207.411,671,203,671Z" transform="translate(-1586 5317)" fill="url(#linear-gradient-2)"/>
      </g>
      <ellipse id="Ellipse_79" data-name="Ellipse 79" cx="9" cy="6.5" rx="9" ry="6.5" transform="translate(-1494 5363)" fill="#f8f8f8"/>
      <ellipse id="Ellipse_80" data-name="Ellipse 80" cx="9" cy="6.5" rx="9" ry="6.5" transform="translate(-1494 5374)" fill="#fff"/>
      <ellipse id="Ellipse_82" data-name="Ellipse 82" cx="9" cy="6.5" rx="9" ry="6.5" transform="translate(-1513 5353)" fill="#fff"/>
      <ellipse id="Ellipse_88" data-name="Ellipse 88" cx="9" cy="6.5" rx="9" ry="6.5" transform="translate(-1411 5353)" fill="#fff"/>
      <ellipse id="Ellipse_87" data-name="Ellipse 87" cx="9" cy="6.5" rx="9" ry="6.5" transform="translate(-1474 5353)" fill="#fff"/>
      <ellipse id="Ellipse_85" data-name="Ellipse 85" cx="9" cy="6.5" rx="9" ry="6.5" transform="translate(-1494 5336)" fill="url(#radial-gradient)"/>
      <ellipse id="Ellipse_81" data-name="Ellipse 81" cx="9" cy="6.5" rx="9" ry="6.5" transform="translate(-1556 5353)" fill="#fff"/>
    </g>
    <g id="undraw_happy_music_g6wc" transform="translate(-2744 5352)">
      <g id="Group_62" data-name="Group 62" transform="translate(1624.425 -291.929) rotate(90)">
        <path id="Path_381" data-name="Path 381" d="M131.69,368Z" fill="#3f3d56"/>
        <path id="Path_382" data-name="Path 382" d="M327.661,411.058v0l-3.644-1.518-15.377-6.5-5.512-2.33-.423,1.068h0l-7.4,18.694,20.837,8.819.109.1-1.4,3.311a5.861,5.861,0,0,0-.49.955c-.984,2.484.874,4.954,2.63,5.649s3.977-.754,4.961-3.237c.97-2.45.022-5.562-1.689-6.314v0l-3.644-1.518-12.467-4.846,7.123-17.985-1.056-.418-7.126,17.992-1.542-.6,7.154-18.062.188.08,14.654,6.2.109.1-1.4,3.311a5.852,5.852,0,0,0-.49.955c-.984,2.484.874,4.954,2.63,5.649s3.977-.754,4.961-3.237C330.321,414.922,329.372,411.81,327.661,411.058Z" transform="translate(-156.114 -63.584)" fill="#3f3d56"/>
        <path id="Path_383" data-name="Path 383" d="M399.781,456.952c-7.564-4.325-6.05-13.815-6.05-13.815-.19-6.165-5.284-5.293-5.284-5.293l-1.854.423a5.629,5.629,0,0,0-2.757-.51l-2.82.475c6.421,1.509,5.894,6.881,5.894,6.881l.9,6.281-16.826-6.788,1.932-4.555a8.129,8.129,0,0,0,.68-1.327c1.366-3.449-1.214-6.881-3.653-7.846s-5.524,1.047-6.89,4.5c-1.347,3.4-.03,7.725,2.346,8.769l0,0,5.062,2.108.038-.119Zm-8.544-11.036.54,6.012a13.866,13.866,0,0,1-2.526-9.207,5.823,5.823,0,0,0-1.127-3.225,6.831,6.831,0,0,1,3.113,6.42Z" transform="translate(-156.114 -63.584)" fill="#3f3d56"/>
        <path id="Path_384" data-name="Path 384" d="M271.433,368.04l0,0-5.062-2.108-21.154-8.223,5.339-4.75a6.744,6.744,0,0,1,9.217-1.51l-1.657-2.463s-3.115-4.124-7.475.239c0,0-5.395,7.953-13.869,5.926l28.94,12.249.152.138-1.95,4.6a8.129,8.129,0,0,0-.68,1.327c-1.366,3.449,1.214,6.88,3.653,7.846s5.524-1.047,6.89-4.5C275.127,373.407,273.81,369.085,271.433,368.04Z" transform="translate(-156.114 -63.584)" fill="#3f3d56"/>
        <path id="Path_385" data-name="Path 385" d="M348.88,341.126l-1.95,4.6a8.131,8.131,0,0,0-.68,1.327c-1.366,3.449,1.214,6.88,3.653,7.846s5.524-1.047,6.89-4.5c1.348-3.4.031-7.725-2.346-8.769l0,0-5.062-2.108-17.315-6.731,9.893-24.98-1.466-.581-9.9,24.989-2.141-.832L338.4,306.3l.262.111,20.353,8.614.152.138-1.95,4.6a8.138,8.138,0,0,0-.68,1.327c-1.366,3.449,1.214,6.881,3.653,7.847s5.524-1.047,6.89-4.5c1.348-3.4.031-7.725-2.346-8.769l0,0-5.062-2.108-20.685-8.744h0l-.671-.284-7.655-3.236-10.871,27.447,28.94,12.249ZM330.071,302.775Z" transform="translate(-156.114 -63.584)" fill="#3f3d56"/>
        <path id="Path_386" data-name="Path 386" d="M257.167,200.556l0-.007-8.713-3.629-36.416-14.156,9.191-8.177s6.114-8.483,15.866-2.6l-2.852-4.239s-5.362-7.1-12.868.412c0,0-9.287,13.691-23.874,10.2l49.819,21.086.262.237-3.357,7.916a14.005,14.005,0,0,0-1.171,2.285c-2.352,5.938,2.09,11.844,6.289,13.507s9.509-1.8,11.861-7.74C263.526,209.795,261.259,202.354,257.167,200.556Z" transform="translate(-156.114 -63.584)" fill="#3f3d56"/>
        <path id="Path_387" data-name="Path 387" d="M283.907,319.47c-18.085-10.34-14.466-33.03-14.466-33.03-.455-14.741-12.634-12.654-12.634-12.654l-4.432,1.011a13.458,13.458,0,0,0-6.591-1.219l-6.742,1.135c15.353,3.607,14.092,16.451,14.092,16.451l2.151,15.017-40.229-16.229,4.619-10.891a19.452,19.452,0,0,0,1.627-3.173c3.266-8.247-2.9-16.451-8.735-18.76s-13.207,2.5-16.474,10.751c-3.222,8.135-.073,18.469,5.61,20.966l0,.01,12.1,5.04.09-.285Zm-20.429-26.386,1.295,14.424c-7.6-10.083-6.043-22.062-6.043-22.062a13.925,13.925,0,0,0-2.694-7.711c8.725,5.221,7.443,15.35,7.443,15.35Z" transform="translate(-156.114 -63.584)" fill="#3f3d56"/>
      </g>
    </g>
  </g>
</svg>
