<svg xmlns="http://www.w3.org/2000/svg" x="0" y="0" viewBox="0 0 1679.822 1039.33">
  <path id="Subtraction_3" data-name="Subtraction 3" d="M-3476.854-2020.171h-.028a158.806,158.806,0,0,1-22.4-1.6c-30.244-4.332-53.134-7.665-72.309-11.112-19.637-3.53-34.659-7.089-48.707-11.54-7.227-2.29-14.439-4.889-22.049-7.947-7.259-2.917-15.111-6.342-24-10.472-17.244-8.006-38.025-18.48-64.335-31.741l-.011,0c-36.358-18.325-86.152-43.423-156.8-77.251V-3059.5h920.269c82.136,11.452,160.521,24.563,232.98,38.968,75.616,15.034,143.759,31.283,202.536,48.3,62.162,18,113.624,36.793,152.956,55.87,10.19,4.943,19.695,9.971,28.248,14.945a279.594,279.594,0,0,1,23.656,15.281,173.171,173.171,0,0,1,18.761,15.59,103.538,103.538,0,0,1,13.571,15.872c17.06,25.105,30.87,46.862,42.22,66.512,11.948,20.686,21.14,38.978,28.1,55.92,3.521,8.572,6.506,16.923,8.872,24.822a194.564,194.564,0,0,1,5.481,23.176,152.343,152.343,0,0,1,2.135,21.864,132.925,132.925,0,0,1-1.164,20.885,132.822,132.822,0,0,1-4.418,20.24,151.556,151.556,0,0,1-7.624,19.931c-5.983,12.915-14.058,26.085-24.686,40.265a493.285,493.285,0,0,1-36.961,43.031c-12.981,13.684-28.51,29.085-48.868,48.469-32.5,30.946-60.41,53.62-87.828,71.356a370.774,370.774,0,0,1-42.425,23.758,379.224,379.224,0,0,1-44.794,17.856c-15.245,5.019-31.5,9.432-49.687,13.489-16.84,3.756-35.518,7.24-57.1,10.654-41.1,6.5-89.942,12.266-146.5,18.943h-.009l-.033,0c-34.826,4.11-74.3,8.769-118.161,14.328-21.354,2.706-42.67,6.462-63.356,11.163-19.564,4.445-39.17,9.875-58.274,16.138-17.926,5.879-35.975,12.679-53.646,20.21-16.4,6.99-33.048,14.853-49.475,23.37a932.965,932.965,0,0,0-88.257,52.595c-27.364,18.239-52.6,36.583-77,54.323l-.027.02-.01.006-.017.013-.007.005c-19.076,13.867-37.095,26.966-54.781,39.032-19.889,13.568-36.384,23.8-51.912,32.2-18.137,9.811-34.742,16.965-50.763,21.87a190.013,190.013,0,0,1-25.495,5.974A164.154,164.154,0,0,1-3476.854-2020.171Z" transform="translate(3887.5 3059.5)" fill="#a2d0ff"/>
</svg>
