<svg xmlns="http://www.w3.org/2000/svg" height="100%" viewBox="0 0 300 200" transform="rotate(90)">
  <g id="Group_56" data-name="Group 56" transform="translate(-6468 -9802)">
    <g id="smartwatch-svgrepo-com" transform="translate(6458 9802)">
      <path id="Path_63" data-name="Path 63" d="M154.329,96.166h-5.851V58.83a20.388,20.388,0,0,0-20.364-20.364h-.489l-2.635-4.589a28.008,28.008,0,0,1-3.774-13.9C121.218,8.963,111.189,0,98.861,0H59.618c-12.328,0-22.36,8.963-22.36,19.976a28.048,28.048,0,0,1-3.774,13.9l-2.631,4.593h-.489A20.388,20.388,0,0,0,10,58.83V171.967a20.388,20.388,0,0,0,20.364,20.364h.489l2.635,4.589a28.007,28.007,0,0,1,3.774,13.9c0,11.013,10.028,19.976,22.36,19.976H98.861c12.328,0,22.36-8.963,22.36-19.976a28.048,28.048,0,0,1,3.774-13.9l2.631-4.589h.489a20.388,20.388,0,0,0,20.364-20.364V134.632h5.851a9.546,9.546,0,0,0,9.536-9.536V105.7A9.545,9.545,0,0,0,154.329,96.166Zm-13.544,75.8a12.687,12.687,0,0,1-12.671,12.671H30.364a12.687,12.687,0,0,1-12.671-12.671V58.83A12.687,12.687,0,0,1,30.364,46.16h97.751A12.687,12.687,0,0,1,140.785,58.83V171.967Z" transform="translate(0)"/>
    </g>
    <g id="Group_55" data-name="Group 55" transform="translate(5135 6777.727)">
      <g id="Ellipse_14" data-name="Ellipse 14" transform="translate(1378 3111.273)" fill="none" stroke="#707070" stroke-width="1">
        <circle cx="25.5" cy="25.5" r="25.5" stroke="none"/>
        <circle cx="25.5" cy="25.5" r="25" fill="none"/>
      </g>
      <line id="Line_15" data-name="Line 15" y1="26.122" transform="translate(1403.519 3082.5)" fill="none" stroke="#707070" stroke-width="1"/>
      <line id="Line_16" data-name="Line 16" y1="26.122" transform="matrix(0.999, 0.052, -0.052, 0.999, 1406.614, 3082.92)" fill="none" stroke="#707070" stroke-width="1"/>
      <line id="Line_17" data-name="Line 17" y1="18.415" x2="1.767" transform="translate(1407.379 3090.939)" fill="none" stroke="#707070" stroke-width="1"/>
      <line id="Line_18" data-name="Line 18" y1="26.122" transform="translate(1413.198 3083.866) rotate(9)" fill="none" stroke="#707070" stroke-width="1"/>
      <line id="Line_19" data-name="Line 19" y1="22.667" x2="4.501" transform="translate(1411.074 3087.323)" fill="none" stroke="#707070" stroke-width="1"/>
      <line id="Line_20" data-name="Line 20" y1="18.902" x2="4.767" transform="translate(1413.22 3092.145)" fill="none" stroke="#707070" stroke-width="1"/>
    </g>
  </g>
</svg>
