<svg xmlns="http://www.w3.org/2000/svg" xmlns:xlink="http://www.w3.org/1999/xlink" width="100%" viewBox="0 0 898.5 549.327">
  <defs>
    <style>
      .cls-1 {
        fill: #e6e6e6;
      }

      .cls-2 {
        fill: #a0616a;
      }

      .cls-3 {
        fill: #f2d0d0;
      }

      .cls-4 {
        fill: #2f2e41;
      }

      .cls-5 {
        fill: #ffdbdb;
      }

      .cls-6 {
        fill: #2e2e2e;
      }

      .cls-7 {
        fill: #212121;
      }

      .cls-8 {
        fill: #3f3d56;
      }

      .cls-9 {
        fill: #5a7d9a;
      }

      .cls-10, .cls-13 {
        opacity: 0.2;
      }

      .cls-11, .cls-13 {
        fill: #fff;
      }

      .cls-12 {
        opacity: 0.3;
      }

      .cls-14 {
        fill: url(#linear-gradient);
      }

      .cls-15 {
        fill: #5b5877;
      }

      .cls-16 {
        opacity: 0.1;
      }

      .cls-17 {
        fill: #17203b;
      }

      .cls-18, .cls-22 {
        opacity: 0.05;
      }

      .cls-19 {
        fill: #fdc2cc;
      }

      .cls-20 {
        fill: #d39999;
      }

      .cls-21 {
        fill: #865a61;
      }

      .cls-23 {
        fill: #ffb8b8;
      }

      .cls-24 {
        fill: #575a88;
      }
    </style>
    <linearGradient id="linear-gradient" x1="0.5" y1="1" x2="0.5" gradientUnits="objectBoundingBox">
      <stop offset="0" stop-color="gray" stop-opacity="0.251"/>
      <stop offset="0.54" stop-color="gray" stop-opacity="0.122"/>
      <stop offset="1" stop-color="gray" stop-opacity="0.102"/>
    </linearGradient>
  </defs>
  <g id="undraw_watch" transform="translate(0.002)">
    <ellipse id="Ellipse_16" data-name="Ellipse 16" class="cls-1" cx="5.513" cy="98.066" rx="5.513" ry="98.066" transform="translate(139.591 497.517) rotate(-89.908)"/>
    <path id="Path_64" data-name="Path 64" class="cls-2" d="M483.89,426.729l12.125,3.221a8.728,8.728,0,0,0,10.932-7.634h0a8.728,8.728,0,0,0-10.485-9.344l-12.911,2.711-41.438-1.326-12.382-21.479-13.725,13.408,18.162,23.325Z" transform="translate(-193.758 -201.16)"/>
    <path id="Path_65" data-name="Path 65" class="cls-3" d="M413.385,408.029l28.971-10.257-10.168-19.323a16.423,16.423,0,0,0-24.093-5.707h0a16.423,16.423,0,0,0-3.678,23.076Z" transform="translate(-193.758 -201.16)"/>
    <path id="Path_66" data-name="Path 66" class="cls-4" d="M444.392,436.275l8.01,37.682,43.439,169.649-32.873,9.979L424.812,518.57l-41.091,135.6-36.982-10.566,36.4-93.336,4.109-47.549s-13.452-38.9,13.233-67Z" transform="translate(-193.758 -201.16)"/>
    <path id="Path_67" data-name="Path 67" class="cls-4" d="M347.3,692.9l12.907,1.062,1.5-15.438c2.935,11.268,8.466,17.113,16.409,17.917a10.063,10.063,0,0,0,9.609-5.047h0q.249-.427.455-.874a6.319,6.319,0,0,0-2.521-7.839c-8.611-5.713-7.608-23.287-5.881-41.755l-16.115-.377-2.193,13.335C349.942,664.845,347,677.61,347.3,692.9Z" transform="translate(-193.758 -201.16)"/>
    <path id="Path_68" data-name="Path 68" class="cls-4" d="M460.734,695.05l12.942-.486-.354-15.506c4.259,10.837,10.447,15.98,18.43,15.831a10.063,10.063,0,0,0,8.938-6.157h0q.2-.454.347-.922a6.319,6.319,0,0,0-3.438-7.483c-9.231-4.644-10.333-22.213-10.822-40.755l-16.044,1.549-.586,13.5C460.007,666.878,458.61,679.9,460.734,695.05Z" transform="translate(-193.758 -201.16)"/>
    <circle id="Ellipse_17" data-name="Ellipse 17" class="cls-2" cx="20.821" cy="20.821" r="20.821" transform="translate(183.174 109.25)"/>
    <path id="Path_69" data-name="Path 69" class="cls-2" d="M389.59,412.906l30.525-31.7-14.675-21.72-.587-21.133H380.2l2.29,18.176C367.021,374.112,375.788,393.338,389.59,412.906Z" transform="translate(-193.758 -201.16)"/>
    <path id="Path_70" data-name="Path 70" class="cls-5" d="M398.1,437.855l49.9,5.283c-5.027-36.063-15.841-64.731-33.167-70.736l-40.5,9.392Z" transform="translate(-193.758 -201.16)"/>
    <path id="Path_71" data-name="Path 71" class="cls-2" d="M400.541,460.8l5.716,11.168a8.728,8.728,0,0,0,12.987,3.021h0a8.728,8.728,0,0,0-.067-14.044l-10.652-7.784-26.731-31.691L389.48,397.9l-19.147-1.234-5.191,29.1Z" transform="translate(-193.758 -201.16)"/>
    <path id="Path_72" data-name="Path 72" class="cls-3" d="M367.284,395.883l27,14.676,7.563-20.483a16.423,16.423,0,0,0-11.873-21.727h0a16.423,16.423,0,0,0-19.614,12.7Z" transform="translate(-193.758 -201.16)"/>
    <path id="Path_73" data-name="Path 73" class="cls-4" d="M392.4,333.84c3.079.943,6.075-1.746,7.708-4.521s2.87-6.066,5.668-7.658c3.626-2.063,8.718-.532,11.938-3.185,3.052-2.515,2.509-7.7-.2-10.575s-6.833-3.921-10.761-4.381c-8.856-1.037-18.231.351-25.669,5.27s-12.573,13.7-11.794,22.587c.335,3.819,1.693,7.463,2.529,11.2s1.111,7.829-.613,11.253c-2.273,4.515-7.588,6.825-12.64,6.988s-9.973-1.432-14.811-2.9-9.87-2.835-14.886-2.207a20.78,20.78,0,0,0-16.357,13.2,23.608,23.608,0,0,0,2.7,21.095c4.287,6.377,11.409,10.494,18.888,12.258s15.318,1.355,22.9.1a105,105,0,0,0,28.837-9.207c5.545-2.706,11.151-6.22,13.791-11.8,2.614-5.52,1.789-12.182-.788-17.72S392.114,353.478,387.962,349c-2.107-2.274-4.28-4.609-5.4-7.5s-.953-6.512,1.247-8.7,6.611-1.9,7.848.943" transform="translate(-193.758 -201.16)"/>
    <ellipse id="Ellipse_18" data-name="Ellipse 18" class="cls-1" cx="45.531" cy="3.473" rx="45.531" ry="3.473" transform="translate(-0.002 452.717) rotate(-0.092)"/>
    <ellipse id="Ellipse_19" data-name="Ellipse 19" class="cls-1" cx="94.977" cy="5.339" rx="94.977" ry="5.339" transform="translate(359.527 484.65) rotate(-0.092)"/>
    <path id="Path_74" data-name="Path 74" class="cls-6" d="M677.883,649.889s-93.136-46.568-79.831-177.4,8.87-117.528,8.87-117.528,22.175-73.178,62.09-99.788c0,0-95.353-97.571-170.749,79.831,0,0-19.958,106.441-4.435,177.4s51,128.616,51,128.616,33.263,33.263,70.96,33.263S677.883,649.889,677.883,649.889Z" transform="translate(-193.758 -201.16)"/>
    <path id="Path_75" data-name="Path 75" class="cls-7" d="M832,571.168S778.78,713.089,612.467,686.478,490.5,371.591,490.5,371.591,471.919,586.638,569.157,649.88c26.943,17.523,62.134,17.68,87.87-1.571,17.054-12.756,31.667-35.009,29.726-73.816Z" transform="translate(-193.758 -201.16)"/>
    <path id="Path_76" data-name="Path 76" class="cls-7" d="M826.815,301.155s-75.753-136.9-239.85-90.333C485.246,254.16,487.14,365.75,487.14,365.75c-12.265,185.02,119.746,182.032,150.828-15.225,5.457-34.635-5.544-54.329-5.544-54.329s-15.523,46.568-63.2,56.547c-47.751,9.994-55.915-5.9-54.329-29.936q.024-.36.048-.716a90.653,90.653,0,0,1,21.537-52.824c27.335-31.827,86.915-78.3,150.272,19.169l4.435,10.967S769.517,320.527,826.815,301.155Z" transform="translate(-193.758 -201.16)"/>
    <path id="Path_77" data-name="Path 77" class="cls-8" d="M704.472,297.3a43.268,43.268,0,0,0-43.22,43.22V543.912a45.047,45.047,0,0,0,45,45H813.256a54.287,54.287,0,0,0,54.225-54.225V351.952A54.709,54.709,0,0,0,812.833,297.3Z" transform="translate(-193.758 -201.16)"/>
    <path id="Path_78" data-name="Path 78" class="cls-9" d="M723.028,306.175a23,23,0,0,0-22.97,22.97V558.177a23,23,0,0,0,22.97,22.97H824.789a46.071,46.071,0,0,0,46.018-46.018V346.718a40.589,40.589,0,0,0-40.543-40.543Z" transform="translate(-193.758 -201.16)"/>
    <path id="Path_79" data-name="Path 79" class="cls-10" d="M719.276,307.448a22.925,22.925,0,0,0-9.239,18.37V554.85a23,23,0,0,0,22.97,22.97H834.768a45.789,45.789,0,0,0,11.437-1.5,45.692,45.692,0,0,1-22.524,5.932H721.92a23,23,0,0,1-22.97-22.97V330.253a23,23,0,0,1,20.327-22.806Z" transform="translate(-193.758 -201.16)"/>
    <ellipse id="Ellipse_21" data-name="Ellipse 21" class="cls-9" cx="22.175" cy="27.719" rx="22.175" ry="27.719" transform="translate(453.08 160.452)"/>
    <path id="Path_80" data-name="Path 80" class="cls-10" d="M684.536,389.331c0-13.41-7.619-24.594-17.74-27.162a18,18,0,0,1,4.435-.557c12.247,0,22.175,12.41,22.175,27.719s-9.928,27.719-22.175,27.719a18,18,0,0,1-4.435-.557C676.917,413.925,684.536,402.741,684.536,389.331Z" transform="translate(-193.758 -201.16)"/>
    <path id="Path_81" data-name="Path 81" class="cls-9" d="M664.578,460.292v57.655a7.761,7.761,0,0,0,15.523,0V460.292a7.761,7.761,0,0,0-15.523,0Z" transform="translate(-193.758 -201.16)"/>
    <path id="Path_82" data-name="Path 82" class="cls-10" d="M676.774,517.947V460.292a7.747,7.747,0,0,0-5.544-7.4,7.649,7.649,0,0,1,2.218-.362,7.771,7.771,0,0,1,7.761,7.761v57.655a7.771,7.771,0,0,1-7.761,7.761,7.651,7.651,0,0,1-2.218-.362A7.747,7.747,0,0,0,676.774,517.947Z" transform="translate(-193.758 -201.16)"/>
    <circle id="Ellipse_22" data-name="Ellipse 22" class="cls-11" cx="11.088" cy="11.088" r="11.088" transform="translate(348.857 355.594)"/>
    <path id="Path_83" data-name="Path 83" class="cls-12" d="M560.355,567.841a11.09,11.09,0,0,0-8.869-10.864,11.088,11.088,0,1,1,0,21.728,11.09,11.09,0,0,0,8.87-10.864Z" transform="translate(-193.758 -201.16)"/>
    <circle id="Ellipse_23" data-name="Ellipse 23" class="cls-11" cx="11.088" cy="11.088" r="11.088" transform="translate(343.857 311.594)"/>
    <path id="Path_84" data-name="Path 84" class="cls-12" d="M555.355,523.841a11.09,11.09,0,0,0-8.869-10.864,11.088,11.088,0,1,1,0,21.728,11.09,11.09,0,0,0,8.87-10.864Z" transform="translate(-193.758 -201.16)"/>
    <circle id="Ellipse_24" data-name="Ellipse 24" class="cls-11" cx="11.088" cy="11.088" r="11.088" transform="translate(355.509 109.45)"/>
    <path id="Path_85" data-name="Path 85" class="cls-12" d="M567.008,321.7a11.09,11.09,0,0,0-8.869-10.864,11.088,11.088,0,1,1,0,21.728A11.09,11.09,0,0,0,567.008,321.7Z" transform="translate(-193.758 -201.16)"/>
    <ellipse id="Ellipse_25" data-name="Ellipse 25" class="cls-13" cx="22.175" cy="27.719" rx="22.175" ry="27.719" transform="translate(573.811 221.149)"/>
    <ellipse id="Ellipse_26" data-name="Ellipse 26" class="cls-13" cx="41.435" cy="51.794" rx="41.435" ry="51.794" transform="translate(554.551 197.075)"/>
    <ellipse id="Ellipse_27" data-name="Ellipse 27" class="cls-13" cx="62.426" cy="78.033" rx="62.426" ry="78.033" transform="translate(533.56 170.836)"/>
    <path id="Path_86" data-name="Path 86" class="cls-1" d="M203.488,509.47c12.121,17.134,15.323,114.654,16.037,145.913.018.7.037,1.372.046,2h30.683c.375-.668.723-1.326,1.052-2,18.187-35.9,8.1-78.94,7.566-81.117,1.381,6.843-4.867,26.676-11.929,45.887C242.633,561.084,205.794,512.452,203.488,509.47Z" transform="translate(-193.758 -201.16)"/>
    <g id="undraw_lost_bqr2" transform="translate(271.011 23.01)">
      <path id="Path_129" data-name="Path 129" class="cls-14" d="M618.231,225.5s-34.3-32.277-39.252-37.1c-1.726-1.665-3.357-3.329-4.75-4.733a18.627,18.627,0,0,0-9.838-5.155c-12.851-2.436-26-10.337-26-10.337h0c-.072-.094-.144-.178-.211-.277a15.631,15.631,0,0,1-2.414-5.16c-.072-.272-.144-.555-.205-.843q.311-.4.6-.816a3.973,3.973,0,0,0,.649-.294,7.806,7.806,0,0,0,3.157-4.328c.555-1.493,1-3.141,2.319-4.112a4.85,4.85,0,0,0,1.26-1,2.957,2.957,0,0,0,.294-1.715c0-3.79-.6-6.7.277-10.393,1.409-5.915,2.7-13.317-1.764-17.706a15.6,15.6,0,0,0-8.412-4.189c-2.869-.455-7.114,3.451-10.021,3.329-7.408-.283-13.65-6.964-20.691-4.805a14.549,14.549,0,0,0-7.6,5.449c-3.474,4.95-3.141,11.353-2.641,17.257a2.148,2.148,0,0,0,.383,1.26c.261.305.677.466.932.771a1.87,1.87,0,0,1,.289,1.382,9.065,9.065,0,0,1-.688,2.774,1.11,1.11,0,0,0-.105,1,1.049,1.049,0,0,0,.555.377,5.045,5.045,0,0,0,.916.216c-.05.488-.094.977-.111,1.47v.838a21.718,21.718,0,0,0,9.888,18.133c.061.4.128.81.189,1.237.189,1.315.361,2.774.488,4.361,0,.289.044.555.067.871l-.15-.305-23.86,11.7a11.825,11.825,0,0,0-4.811,2.358l-.472.233v.139c-.2.163-2.072,1.284-5.542,6.4s-7.659,38.74-7.659,38.74c-1.47,10.1-2.475,17.839-2.475,17.839s-5.454,23.377,20.969,18.9c-.172,14.743-6.487,39.346-6.487,39.346a13,13,0,0,0,2.569,2.536l-.15,1-1.665,11.3s-9.91,27.455-11.431,51.942-3.429,38.214-3.429,38.214l-3.429,48.979-4.822,22.395A113.231,113.231,0,0,1,425.544,506.9a3.84,3.84,0,0,0-1.554,5.26c1.953,3.362,7.962,6.853,26.163,1.26,28.965-8.878,26.3-8.534,26.3-8.534s.427-11.886-.8-18.932c-.039-.211-.078-.416-.117-.621,6.936-7.818,3.585-20.53,3.585-20.53s13.717-26.712,7.213-44.152c0,0-1.526-14.843,6.481-21.89.111-.1.227-.211.344-.327l.105-.111.261-.277.117-.128.305-.355.067-.078c.122-.15.25-.311.377-.477l.1-.133.322-.361.122-.178.3-.438.1-.144.405-.616.078-.122.338-.555.128-.211.311-.522.117-.2.427-.744h0l.427-.766.122-.227.327-.6.128-.244.394-.749.05-.094.455-.888.111-.216.355-.7.133-.266.372-.755.094-.189.466-.971.078-.161.388-.827.133-.283.361-.771.117-.25.477-1.038h0l.461-1.027.128-.283.361-.816.122-.283.494-1.06v-.044l.483-1.11.105-.239.377-.877.128-.294.394-.938.078-.178.477-1.11.078-.183.394-.943.128-.305.361-.882.105-.255.461-1.11.039-.094.416-1.027.128-.316.338-.843.122-.305.4-1.01.039-.105.433-1.11.128-.322.311-.793.133-.35.327-.843.094-.25.405-1.049.111-.289.294-.766.15-.388.261-.677.139-.366.366-.971.105-.283.266-.71.15-.394.222-.594.15-.405.25-.671.161-.433.25-.677.161-.433.172-.466.161-.444.139-.383.372-1.01.061-.172.172-.477.117-.316.178-.483.083-.227c1.593-4.389,2.569-7.213,2.569-7.213s7.213,25.23,6.1,33.021,6.858,36.733,6.858,36.733-4.572,28.942-1.9,35.989-3.812,33.393-3.812,33.393.494.272,1.332.688l-.05.716c-.416,5.793-1.321,16.924-2.425,21.23-1.526,5.937-.76,12.246,11.431,11.5s12.574-8.162,12.574-8.162-4.023-12.973-4.517-20.625a5.308,5.308,0,0,0-.033-.732h0l.344-.128.1-.039c.139-.061.272-.122.4-.189h0c.122-.067.233-.133.35-.205l.1-.067q.144-.1.283-.211l.067-.055q.166-.139.316-.289l.072-.072q.116-.128.227-.261l.078-.1c.089-.117.178-.239.261-.372,4.189-6.659,4.572-20.78,4.572-20.78s8.384-47.492,5.338-53.823-1.526-21.146-1.526-21.146-3.429-22.262.383-33.021c2.852-8.057,4.639-35.878,4.556-49.19v-1.1c2.841-3.529,4.994-9.721,3.462-20.575-.089-.616-.155-1.237-.222-1.87,4.328-3.235,8.6-7.036,8.6-7.036l1.476-1.52.472-.488c.411.172.843.327,1.293.466,1.665.755,2.852,1.176,2.852,1.176s21.723-17.812,38.109-26.346S618.231,225.5,618.231,225.5Zm-25.913,15.581s-22.867,14.493-27.045,21.9a5.548,5.548,0,0,0-.555,1.321l-.555.233h0l-.7.266c3.5-19.976,12.873-39.668,12.873-39.668s7.213,6.309,12.207,8.878,3.773,7.08,3.773,7.08Z" transform="translate(-51.34 -44.69)"/>
      <path id="Path_130" data-name="Path 130" class="cls-15" d="M455.115,801.98c-17.556,5.549-23.355,2.086-25.236-1.248a3.884,3.884,0,0,1,1.5-5.21,109.888,109.888,0,0,0,26.634-21.94c1.953-2.219,2.98-3.579,2.98-3.579s13.6-2.575,16.907,0c.827.644,1.4,2.441,1.8,4.772,1.187,6.98.777,18.755.777,18.755S483.048,793.157,455.115,801.98Z" transform="translate(-53.972 -335.546)"/>
      <path id="Path_131" data-name="Path 131" class="cls-15" d="M626.278,796.608s-.366,7.352-12.13,8.085-12.5-5.515-11.025-11.392c1.065-4.261,1.936-15.287,2.336-21.03.15-2.181.233-3.6.233-3.6s18.378-1.837,16.541,3.329a11.457,11.457,0,0,0-.311,4.195C622.4,783.763,626.278,796.608,626.278,796.608Z" transform="translate(-131.043 -335.324)"/>
      <path id="Path_132" data-name="Path 132" class="cls-16" d="M502.342,774.779l-.327.377c-6.986,7.718-21.685,0-21.685,0l.327-1.565c1.953-2.22,2.98-3.579,2.98-3.579s13.6-2.575,16.907,0C501.393,770.65,501.97,772.448,502.342,774.779Z" transform="translate(-76.634 -335.55)"/>
      <path id="Path_133" data-name="Path 133" class="cls-16" d="M624.544,771.992a11.459,11.459,0,0,0-.311,4.195c-4.805,1.665-13.317-2.275-16.463-3.884.15-2.181.233-3.6.233-3.6S626.392,766.849,624.544,771.992Z" transform="translate(-133.36 -335.334)"/>
      <path id="Path_134" data-name="Path 134" class="cls-17" d="M579.6,556.527c.693,6.666-5.144,53.268-5.144,53.268s-.366,13.966-4.411,20.58-20.214-2.575-20.214-2.575l3.673-33.082,1.837-35.64s-7.718-28.671-6.614-36.389-5.882-32.738-5.882-32.738-17.428,47.36-21.128,57.594A129.057,129.057,0,0,1,512.7,566.77s-2.478,26.945-5.142,43.025,1.486,13.578-5.517,21.3-21.685,0-21.685,0l4.794-22.739,3.329-48.519s1.837-13.6,3.329-37.859,11.025-51.459,11.025-51.459l1.6-11.2,1.343-9.389s74.615-2.575,76.451-2.941c.461-.094.694,2.713.716,7.136.083,13.189-1.665,40.745-4.395,48.729-.713,10.5.787,16.582,1.049,30S578.907,549.86,579.6,556.527Z" transform="translate(-76.647 -192.274)"/>
      <g id="Group_57" data-name="Group 57" class="cls-18" transform="translate(414.577 254.696)">
        <path id="Path_135" data-name="Path 135" d="M547.521,524.5s-16.175,48.152-23.893,55.133-6.248,21.685-6.248,21.685c6.248,17.273-6.986,43.741-6.986,43.741s3.329,12.862-3.673,20.581a10.543,10.543,0,0,1-6.781,3.329c3.884.405,7.985-.183,10.82-3.329,6.986-7.718,3.673-20.581,3.673-20.581s13.234-26.462,6.986-43.741c0,0-1.47-14.7,6.248-21.685,5.932-5.366,16.846-35.018,21.59-48.48C548.281,527.224,547.521,524.5,547.521,524.5Z" transform="translate(-499.94 -481.473)"/>
        <path id="Path_136" data-name="Path 136" d="M644.128,535.562s-3.329-22.051.366-32.738c2.774-7.985,4.472-35.54,4.395-48.729,0-4.439-.255-7.213-.716-7.136-.227.044-1.6.128-3.812.233.311.755.466,3.285.488,6.908.083,13.189-1.665,40.745-4.395,48.729-3.673,10.659-.366,32.738-.366,32.738s-1.47,14.7,1.47,20.952-5.144,53.268-5.144,53.268-.366,13.966-4.411,20.58a4.905,4.905,0,0,1-3.374,2.22c3.146.466,6.009.078,7.413-2.22,4.045-6.614,4.411-20.58,4.411-20.58s8.085-47.048,5.144-53.268S644.128,535.562,644.128,535.562Z" transform="translate(-557.223 -446.957)"/>
      </g>
      <path id="Path_137" data-name="Path 137" class="cls-19" d="M607.816,200.252l-2.575,25.358s-40.8,8.823-36.389-5.515a53.932,53.932,0,0,0,1.737-19.859c-.128-1.565-.289-3.019-.472-4.323a61.884,61.884,0,0,0-1.265-6.692s31.628-23.893,30.141-7.718a26.334,26.334,0,0,0,.583,9.139,15.671,15.671,0,0,0,2.33,5.11A11.46,11.46,0,0,0,607.816,200.252Z" transform="translate(-115.889 -71.601)"/>
      <path id="Path_138" data-name="Path 138" class="cls-16" d="M599.849,190.656c-.294.4-.6.793-.921,1.171a21.69,21.69,0,0,1-28.543,4.106,61.869,61.869,0,0,0-1.265-6.692s31.628-23.893,30.141-7.718a26.335,26.335,0,0,0,.588,9.133Z" transform="translate(-116.156 -71.61)"/>
      <path id="Path_139" data-name="Path 139" class="cls-19" d="M597.259,159.671a21.685,21.685,0,0,1-43.369,0q0-.416,0-.832a21.682,21.682,0,1,1,43.357.832Z" transform="translate(-109.377 -54.546)"/>
      <path id="Path_140" data-name="Path 140" class="cls-16" d="M602.16,454.127a11.819,11.819,0,0,1-7.7,4.622l-16.891,5.909h-.039l-5.121,1.792-2.147-5.282-2.63-6.481v11.763s-32.272,2.219-43.98-7.152l1.343-9.389s74.614-2.575,76.451-2.941C601.9,446.9,602.138,449.7,602.16,454.127Z" transform="translate(-95.917 -192.266)"/>
      <path id="Path_141" data-name="Path 141" class="cls-16" d="M607.816,216.195l-2.575,25.358s-40.8,8.823-36.389-5.516a53.932,53.932,0,0,0,1.737-19.859c.7,1.476,5.893,11.919,12.6,13.733h0a7.274,7.274,0,0,0,2.569.244,8.528,8.528,0,0,0,3.956-1.531c6.037-4.012,11.1-14.571,12.207-16.924A11.4,11.4,0,0,0,607.816,216.195Z" transform="translate(-115.889 -87.543)"/>
      <path id="Path_142" data-name="Path 142" class="cls-20" d="M654.332,292.864c-15.8,8.456-36.755,26.079-36.755,26.079s-15.437-5.515-11.392-12.862S632.265,284.4,632.265,284.4s1.11-4.411-3.673-6.986-11.763-8.823-11.763-8.823-16.541,35.651-13.234,59.544-11.025,24.97-11.025,24.97l-16.891,5.909h-.039l-5.122,1.792-2.147-5.282-2.63-6.481V360.8s-37.493,2.575-46.31-9.555c0,0,8.085-32.344,5.882-44.84s-4.777-75.347-4.777-75.347l28.116-14.149s5.5,12,12.712,13.961h0a7.274,7.274,0,0,0,2.569.244,8.528,8.528,0,0,0,3.956-1.531c6.808-4.522,12.4-17.4,12.4-17.4s12.679,7.824,25.075,10.238a17.812,17.812,0,0,1,9.488,5.1c1.343,1.4,2.919,3.019,4.583,4.689C624.213,237,657.3,268.976,657.3,268.976S670.118,284.407,654.332,292.864Z" transform="translate(-94.038 -87.761)"/>
      <path id="Path_143" data-name="Path 143" class="cls-19" d="M674.748,388.044l-4.827,5.11-1.421,1.509s-12.862,11.763-16.175,11.392-8.823-22.789-2.22-21.318c4.017.893,8.717-.516,11.78-1.764h0a31.155,31.155,0,0,0,3.285-1.543Z" transform="translate(-150.826 -163.094)"/>
      <path id="Path_144" data-name="Path 144" class="cls-16" d="M597.277,159.671a21.585,21.585,0,0,1-5.116,13.988,3.13,3.13,0,0,1-2.913-1.393c-.61-1.071-.355-2.414-.76-3.568a19.1,19.1,0,0,0-1.909-2.974c-1.476-2.586-.855-6.5-3.557-7.89a6.713,6.713,0,0,0-4.134-.189c-2.724.449-5.466,1.343-8.151,1.715-3.063.433-5.821-1.559-8.845-1.6-2.7-.044-5.4,1.537-7.962,1.082a21.682,21.682,0,1,1,43.357.832Z" transform="translate(-109.395 -54.546)"/>
      <path id="Path_145" data-name="Path 145" class="cls-21" d="M576.934,147.5a6.712,6.712,0,0,1,4.134.194c2.7,1.382,2.081,5.3,3.557,7.885a20.051,20.051,0,0,1,1.914,2.974c.388,1.11.15,2.5.76,3.568.882,1.548,3.274,1.776,4.844.854a7.7,7.7,0,0,0,3.041-4.289c.522-1.476.96-3.107,2.22-4.073a4.707,4.707,0,0,0,1.215-.993,3,3,0,0,0,.289-1.7c0-3.751-.583-6.659.266-10.293,1.359-5.86,2.6-13.2-1.7-17.54a14.9,14.9,0,0,0-8.112-4.15c-2.774-.455-6.858,3.418-9.666,3.329-7.141-.283-13.167-6.9-19.976-4.761a14.05,14.05,0,0,0-7.336,5.4c-3.329,4.905-3.03,11.242-2.547,17.1a2.163,2.163,0,0,0,.372,1.248c.25.3.655.461.9.766a1.892,1.892,0,0,1,.278,1.365,9.184,9.184,0,0,1-.66,2.774,1.143,1.143,0,0,0-.1,1,1.01,1.01,0,0,0,.555.377c2.774,1,5.771-.927,8.739-.877s5.787,2.036,8.85,1.6C571.469,148.845,574.21,147.952,576.934,147.5Z" transform="translate(-107.441 -45.873)"/>
      <path id="Path_146" data-name="Path 146" class="cls-22" d="M608.287,373h-.039l-5.31,1.975-1.964-5.466-8.323-23.2,1.3-101.482h0a7.275,7.275,0,0,0,2.569.244,8.529,8.529,0,0,0,3.956-1.531h0L598.9,343.418Z" transform="translate(-126.63 -101.716)"/>
      <circle id="Ellipse_31" data-name="Ellipse 31" class="cls-11" cx="1.104" cy="1.104" r="1.104" transform="translate(470.243 145.925)"/>
      <circle id="Ellipse_32" data-name="Ellipse 32" class="cls-11" cx="1.104" cy="1.104" r="1.104" transform="translate(468.034 183.412)"/>
      <circle id="Ellipse_33" data-name="Ellipse 33" class="cls-11" cx="1.104" cy="1.104" r="1.104" transform="translate(466.198 222.376)"/>
      <circle id="Ellipse_34" data-name="Ellipse 34" class="cls-11" cx="1.104" cy="1.104" r="1.104" transform="translate(468.406 241.852)"/>
      <path id="Path_147" data-name="Path 147" class="cls-22" d="M596.957,262.214H573.43V238.693l11.763-3.313,11.763,3.313Z" transform="translate(-89.587 -73.286)"/>
      <circle id="Ellipse_35" data-name="Ellipse 35" class="cls-11" cx="1.104" cy="1.104" r="1.104" transform="translate(469.138 163.198)"/>
      <circle id="Ellipse_36" data-name="Ellipse 36" class="cls-11" cx="1.104" cy="1.104" r="1.104" transform="translate(495.234 164.302)"/>
      <circle id="Ellipse_37" data-name="Ellipse 37" class="cls-11" cx="1.104" cy="1.104" r="1.104" transform="translate(466.936 203.627)"/>
      <path id="Path_148" data-name="Path 148" class="cls-20" d="M514.133,241.66s-10.293,1.47-13.6,20.214-6.614,44.84-6.614,44.84-5.516,24.259,22.04,18.366l1.47-8.456s-2.774,9.738-2.02-9.738.921-32.183.921-32.183Z" transform="translate(-82.482 -100.879)"/>
      <path id="Path_149" data-name="Path 149" class="cls-22" d="M514.133,241.66s-10.293,1.47-13.6,20.214-6.614,44.84-6.614,44.84-5.516,24.259,22.04,18.366l1.47-8.456s-4.228,9.372-3.49-10.11,2.392-31.794,2.392-31.794Z" transform="translate(-82.482 -100.879)"/>
      <path id="Path_151" data-name="Path 151" class="cls-20" d="M680.318,376.46l-5.488,4.067s1.814,9.9,12.1,11l4.411-7.718Z" transform="translate(-163.21 -160.881)"/>
      <path id="Path_161" data-name="Path 161" class="cls-19" d="M512.16,347.816s9.189-22.545,13.6-20.2,17.273,16.4,8.456,22.545a114.019,114.019,0,0,1-15.07,9.078l-6.986-.877Z" transform="translate(-90.802 -139.063)"/>
      <path id="Path_162" data-name="Path 162" class="cls-20" d="M503.22,363.691s8.429-6.614,15.237,13.417l-6.42.921-7.352-4.411Z" transform="translate(-86.823 -154.732)"/>
      <path id="Path_163" data-name="Path 163" class="cls-22" d="M503.22,363.691s8.429-6.614,15.237,13.417l-6.42.921-7.352-4.411Z" transform="translate(-86.823 -154.732)"/>
    </g>
    <g id="Group_58" data-name="Group 58" transform="translate(-91 51)">
      <path id="Path_87" data-name="Path 87" class="cls-23" d="M991.273,507.539l1.5,10.218a9.035,9.035,0,0,1-10.189,10.257h0a9.035,9.035,0,0,1-7.18-12.2l5.073-13.13-2.7-88.559,15.66-5.94Z" transform="translate(-16.758 -198.16)"/>
      <ellipse id="Ellipse_20" data-name="Ellipse 20" class="cls-1" cx="94.977" cy="5.339" rx="94.977" ry="5.339" transform="translate(799.527 487.649) rotate(-0.092)"/>
      <circle id="Ellipse_28" data-name="Ellipse 28" class="cls-23" cx="21.6" cy="21.6" r="21.6" transform="translate(908.636 119.3)"/>
      <path id="Path_88" data-name="Path 88" class="cls-23" d="M972.913,379.559l-39.96-1.62c4.436-9.716,6.2-19.114,4.32-28.08h26.46C962.342,358.315,966.182,368.468,972.913,379.559Z" transform="translate(-16.758 -198.16)"/>
      <path id="Path_89" data-name="Path 89" class="cls-24" d="M966.433,463.8l-58.86,4.32,2.14-33.261c-6.783-16.134-5.7-27.785,2.284-35.5l.723-11.238a17.237,17.237,0,0,1,12.735-15.542l10.2-2.736c13.206,7.736,23.733,7.63,31.32-1.08l12.138,6.217a16.284,16.284,0,0,1,8.761,16.291Z" transform="translate(-16.758 -198.16)"/>
      <path id="Path_90" data-name="Path 90" class="cls-23" d="M876.254,467.039l-16.614,8.722a7.162,7.162,0,0,1-8.706-1.61h0a7.162,7.162,0,0,1,3.941-11.748l11.659-2.385,36.18-14.04,5.94-42.12,16.74,4.32-3.24,49.68Z" transform="translate(-16.758 -198.16)"/>
      <path id="Path_91" data-name="Path 91" class="cls-24" d="M994.513,410.879l-18.36,10.8-1.08-43.2,3.166-1.08a16.274,16.274,0,0,1,16.274,16.274Z" transform="translate(-16.758 -198.16)"/>
      <path id="Path_92" data-name="Path 92" class="cls-4" d="M981.823,675.747,966.211,673.3c-3.152-53.34-9.5-103.137-20.838-147.407-26.215,34.737-48.19,85.934-66.96,149.579l-18.36-4.86L908.114,461.1l57.24-1.08C988.763,492.071,981.909,591.062,981.823,675.747Z" transform="translate(-16.758 -198.16)"/>
      <path id="Path_93" data-name="Path 93" class="cls-4" d="M870.306,694.183l-27.126-3.8a5.349,5.349,0,0,1-4.418-6.7h0a5.349,5.349,0,0,1,4.4-3.886l4.82-.7,15.241-9.308,12.607,3.362,3.738,11.032a8.3,8.3,0,0,1-9.259,10Z" transform="translate(-16.758 -198.16)"/>
      <path id="Path_94" data-name="Path 94" class="cls-4" d="M976.685,694.183l-27.126-3.8a5.349,5.349,0,0,1-4.417-6.7h0a5.349,5.349,0,0,1,4.4-3.886l4.82-.7,15.241-9.308,12.607,3.362,3.738,11.032a8.3,8.3,0,0,1-9.259,10Z" transform="translate(-16.758 -198.16)"/>
      <path id="Path_95" data-name="Path 95" class="cls-24" d="M928.633,418.979c-4.91-10.792-13.388-14.973-27.54-8.64L903,396.267a27.343,27.343,0,0,1,19.692-22.647h0Z" transform="translate(-16.758 -198.16)"/>
      <path id="Path_96" data-name="Path 96" class="cls-4" d="M921.5,327.977s-3.4-26.445,24.328-17.773c0,0,19.8-3.633,26.3,21.136L978.7,357.3l-3.2-1.744L974,358.825l-5.193,1.315-2.222-4.411-1.075,5.356-42.532,4.24s19.049-11.266,19.351-31.456L938.7,337.7Z" transform="translate(-11.758 -198.16)"/>
      <circle id="Ellipse_29" data-name="Ellipse 29" class="cls-4" cx="10.695" cy="10.695" r="10.695" transform="translate(946.178 101.608)"/>
      <path id="Path_97" data-name="Path 97" class="cls-4" d="M957.61,307.845a10.686,10.686,0,0,1,10.689-10c-.221-.028-.44-.062-.665-.077a10.695,10.695,0,0,0-1.372,21.345c.225.014.447.009.669.009a10.686,10.686,0,0,1-9.322-11.282Z" transform="translate(-11.758 -198.16)"/>
    </g>
  </g>
</svg>
